<svg width="8" height="12" viewBox="0 0 8 12" fill="none" xmlns="http://www.w3.org/2000/svg">
<path d="M7.44007 6.09432C7.35591 5.93832 7.19588 5.84107 7.02182 5.84107H4.31153L4.31153 0.48953C4.31153 0.219309 4.0973 0 3.83335 0C3.5694 0 3.35518 0.219309 3.35518 0.48953L3.35518 5.84107H0.644876C0.470183 5.84107 0.310153 5.93832 0.226632 6.09432C0.141835 6.25031 0.147573 6.4409 0.240021 6.59168L3.42849 11.7716C3.51648 11.9138 3.66886 12 3.83335 12C3.99784 12 4.15022 11.9138 4.23821 11.7716L7.42668 6.59168C7.47513 6.51205 7.5 6.42132 7.5 6.3306C7.5 6.24966 7.4796 6.16807 7.44007 6.09432Z" fill="#E0E0E1"/>
</svg>
