<svg width="8" height="12" viewBox="0 0 8 12" fill="none" xmlns="http://www.w3.org/2000/svg">
<path d="M0.0599313 5.90568C0.14409 6.06168 0.30412 6.15893 0.478175 6.15893H3.18847V11.5105C3.18847 11.7807 3.4027 12 3.66665 12C3.9306 12 4.14483 11.7807 4.14483 11.5105V6.15893H6.85512C7.02982 6.15893 7.18985 6.06168 7.27337 5.90568C7.35816 5.74969 7.35243 5.5591 7.25998 5.40832L4.07151 0.228447C3.98352 0.0861572 3.83114 0 3.66665 0C3.50216 0 3.34978 0.0861572 3.26179 0.228447L0.0733202 5.40832C0.0248651 5.48795 0 5.57868 0 5.6694C0 5.75034 0.0204022 5.83193 0.0599313 5.90568" fill="#E0E0E1"/>
</svg>
