<svg width="16" height="16" viewBox="0 0 16 16" fill="none" xmlns="http://www.w3.org/2000/svg">
<path d="M8 15.1396C10.1217 15.1396 12.1566 14.3495 13.6569 12.9429C15.1571 11.5364 16 9.62877 16 7.63965C16 5.65052 15.1571 3.74287 13.6569 2.33635C12.1566 0.929825 10.1217 0.139648 8 0.139648C5.87827 0.139648 3.84344 0.929825 2.34315 2.33635C0.842855 3.74287 0 5.65052 0 7.63965C0 9.62877 0.842855 11.5364 2.34315 12.9429C3.84344 14.3495 5.87827 15.1396 8 15.1396V15.1396ZM4.053 4.1484C4.11241 4.0375 4.21631 3.95322 4.3419 3.91403C4.4675 3.87484 4.60455 3.88394 4.723 3.93934L6.723 4.87684C6.78969 4.90816 6.84806 4.95307 6.89383 5.00828C6.9396 5.06349 6.97162 5.1276 6.98754 5.19591C7.00345 5.26423 7.00287 5.33502 6.98582 5.40309C6.96877 5.47117 6.93569 5.5348 6.889 5.58934C6.96 5.78246 7 6.00184 7 6.2334C7 7.00965 6.552 7.63965 6 7.63965C5.448 7.63965 5 7.00965 5 6.2334C5 5.8509 5.109 5.50402 5.285 5.24996L4.276 4.77746C4.15771 4.72176 4.06781 4.62436 4.02601 4.50661C3.9842 4.38887 3.99391 4.26038 4.053 4.14934V4.1484ZM4.285 11.7956C4.17016 11.7334 4.08637 11.631 4.05205 11.511C4.01773 11.3909 4.0357 11.2629 4.102 11.1553C4.49688 10.5137 5.06505 9.98094 5.74934 9.61064C6.43363 9.24035 7.20989 9.04556 8 9.0459C8.79007 9.04575 9.56625 9.24062 10.2505 9.6109C10.9348 9.98118 11.503 10.5138 11.898 11.1553C11.9313 11.2086 11.9531 11.2676 11.962 11.3288C11.971 11.3901 11.9669 11.4524 11.95 11.5122C11.9332 11.5719 11.9039 11.628 11.8638 11.6771C11.8238 11.7262 11.7738 11.7674 11.7167 11.7983C11.6596 11.8292 11.5965 11.8492 11.5311 11.8572C11.4657 11.8651 11.3993 11.8609 11.3357 11.8447C11.272 11.8285 11.2124 11.8007 11.1603 11.7628C11.1082 11.7249 11.0646 11.6778 11.032 11.624C10.7249 11.125 10.2829 10.7106 9.75067 10.4225C9.2184 10.1345 8.61457 9.98306 8 9.9834C7.38543 9.98306 6.7816 10.1345 6.24933 10.4225C5.71705 10.7106 5.27511 11.125 4.968 11.624C4.90169 11.7317 4.79249 11.8102 4.6644 11.8424C4.53631 11.8746 4.39984 11.8577 4.285 11.7956ZM10 7.63965C9.448 7.63965 9 7.00965 9 6.2334C9 6.00184 9.04 5.7834 9.11 5.59027C9.06349 5.53559 9.03056 5.47188 9.01361 5.40378C8.99666 5.33567 8.99611 5.26487 9.01201 5.19654C9.02791 5.12821 9.05986 5.06406 9.10552 5.00876C9.15119 4.95346 9.20942 4.90839 9.276 4.87684L11.276 3.93934C11.3348 3.91119 11.3989 3.89423 11.4647 3.88943C11.5305 3.88464 11.5966 3.89209 11.6593 3.91137C11.722 3.93066 11.78 3.96138 11.83 4.00178C11.88 4.04218 11.9209 4.09146 11.9505 4.14677C11.98 4.20207 11.9976 4.26232 12.0022 4.32403C12.0069 4.38574 11.9984 4.4477 11.9773 4.50633C11.9563 4.56496 11.9231 4.6191 11.8796 4.66563C11.8361 4.71217 11.7832 4.75017 11.724 4.77746L10.715 5.24996C10.891 5.50309 11 5.84996 11 6.2334C11 7.00965 10.552 7.63965 10 7.63965Z" fill="#FF2700"/>
</svg>
