<svg width="16" height="16" viewBox="0 0 16 16" fill="none" xmlns="http://www.w3.org/2000/svg">
<path d="M8 0C3.5888 0 0 3.5888 0 8C0 12.4112 3.5888 16 8 16C12.4112 16 16 12.4112 16 8C16 3.5888 12.4112 0 8 0ZM8.8 11.932V12.8H7.2V11.936C5.3288 11.6424 4.8 10.3344 4.8 9.6H6.4C6.4088 9.7144 6.5272 10.4 8 10.4C9.104 10.4 9.6 9.932 9.6 9.6C9.6 9.3408 9.6 8.8 8 8.8C5.216 8.8 4.8 7.296 4.8 6.4C4.8 5.3696 5.6232 4.3328 7.2 4.068V3.2096H8.8V4.0968C10.1872 4.4248 10.72 5.5792 10.72 6.4H9.92L9.12 6.4144C9.1088 6.1104 8.948 5.6 8 5.6C6.9608 5.6 6.4 6.0128 6.4 6.4C6.4 6.6992 6.4 7.2 8 7.2C10.784 7.2 11.2 8.704 11.2 9.6C11.2 10.6304 10.3768 11.6672 8.8 11.932Z" fill="#FFAE40"/>
</svg>
