<?xml version="1.0" encoding="UTF-8"?>
<svg width="369.6pt" height="369.6pt" version="1.1" viewBox="0 0 369.6 369.6" xmlns="http://www.w3.org/2000/svg">
 <g fill="#09eeb7" stroke-width="1.5153">
  <path d="m46.904 226.37c-10.193 0-19.969-3.999-27.17-11.115-7.2082-7.1161-11.259-16.767-11.259-26.829 0-10.062 4.0508-19.708 11.259-26.823 7.2023-7.1161 16.978-11.115 27.17-11.115 10.193 0 19.969 3.999 27.176 11.115 7.2082 7.1161 11.253 16.761 11.253 26.823 0 10.062-4.0448 19.714-11.253 26.829-7.2082 7.1161-16.984 11.115-27.176 11.115zm0-59.016v-6e-3c-8.632 0-16.419 5.1401-19.725 13.015-3.3063 7.8746-1.4774 16.943 4.6288 22.972 6.1061 6.0281 15.285 7.8276 23.269 4.5696 7.9767-3.264 13.177-10.95 13.177-19.479 0-5.5869-2.2459-10.95-6.2551-14.903-4.0032-3.9521-9.4302-6.1752-15.095-6.1752z"/>
  <path d="m173.2 78.834c-10.193 0-19.969-3.999-27.17-11.115-7.2082-7.1161-11.259-16.767-11.259-26.829 0-10.062 4.0508-19.708 11.259-26.823 7.2023-7.1161 16.978-11.115 27.17-11.115 10.193 0 19.969 3.999 27.176 11.115 7.2082 7.1161 11.253 16.761 11.253 26.823 0 10.062-4.0448 19.714-11.253 26.829-7.2082 7.1161-16.984 11.115-27.176 11.115zm0-59.016v-6e-3c-8.632 0-16.419 5.1401-19.725 13.015s-1.4774 16.943 4.6288 22.972c6.1061 6.0281 15.285 7.8276 23.269 4.5696 7.9767-3.264 13.177-10.95 13.177-19.479 0-5.5869-2.2459-10.95-6.2551-14.903-4.0032-3.9521-9.4302-6.1752-15.095-6.1752z"/>
  <path d="m219.7 360.28c-10.193 0-19.969-3.999-27.17-11.115-7.2082-7.1161-11.259-16.767-11.259-26.829 0-10.062 4.0508-19.708 11.259-26.823 7.2023-7.1161 16.978-11.115 27.17-11.115 10.193 0 19.969 3.999 27.176 11.115 7.2082 7.1161 11.253 16.761 11.253 26.823 0 10.062-4.0448 19.714-11.253 26.829-7.2082 7.1161-16.984 11.115-27.176 11.115zm0-59.016v-6e-3c-8.632 0-16.419 5.1401-19.725 13.015s-1.4774 16.943 4.6288 22.972c6.1061 6.0281 15.285 7.8276 23.269 4.5696 7.9767-3.264 13.177-10.95 13.177-19.479 0-5.5869-2.2459-10.95-6.2551-14.903-4.0032-3.9521-9.4302-6.1752-15.095-6.1752z"/>
  <path d="m327.15 204.72c-10.193 0-19.969-3.999-27.17-11.115-7.2082-7.1161-11.259-16.767-11.259-26.829 0-10.062 4.0508-19.708 11.259-26.823 7.2023-7.1161 16.978-11.115 27.17-11.115 10.193 0 19.969 3.999 27.176 11.115 7.2082 7.1161 11.253 16.761 11.253 26.823 0 10.062-4.0448 19.714-11.253 26.829-7.2082 7.1161-16.984 11.115-27.176 11.115zm0-59.016v-6e-3c-8.632 0-16.419 5.1401-19.725 13.015s-1.4774 16.943 4.6288 22.972c6.1061 6.0281 15.285 7.8276 23.269 4.5696 7.9767-3.264 13.177-10.95 13.177-19.479 0-5.5869-2.2459-10.95-6.2551-14.903-4.0032-3.9521-9.4302-6.1752-15.095-6.1752z"/>
 </g>
 <path d="m28.064 338.37c2.4055-8.0183 323.14-310.31 323.14-310.31" fill="none" stroke="#09eeb7" stroke-dasharray="84.3,84.3" stroke-linecap="round" stroke-width="42.15"/>
</svg>
