<svg width="16" height="18" viewBox="0 0 16 18" fill="none" xmlns="http://www.w3.org/2000/svg">
<path d="M13.0481 3.00842C14.8139 4.78905 16 6.84404 16 8.93593C16 12.7579 14.8395 15.1205 12.0436 16.265C11.7128 16.219 11.3846 16.1558 11.0604 16.0757L11.0533 16.4221C10.9908 16.7571 10.7646 17.2267 10.0862 16.8405C9.58627 16.556 8.82926 15.918 8.69952 14.2927C8.39541 13.5363 8.33233 12.5609 8.26329 11.3355C8.16569 9.60366 6.43148 9.02043 5.28764 8.95497C4.19259 8.89248 0.338523 8.67704 0.00941538 8.6586C-0.000668043 8.43834 -0.00265315 8.2178 0.00346407 7.9974C0.00346407 6.41435 2.00489 5.08126 3.40345 5.08126H7.30156C9.36071 5.08126 11.033 6.75358 11.033 8.81273C10.9319 10.2476 13.0404 10.8392 13.3064 9.27694C13.5992 7.55344 12.9547 5.60736 11.8573 4.22189C11.7412 4.19392 11.674 4.19392 11.5925 4.24986C10.8438 4.99854 10.307 5.03067 9.30001 4.79381C9.25528 4.76765 9.20751 4.74706 9.15777 4.73251C9.02208 4.68669 8.89889 4.64503 8.96079 4.37067C9.0441 3.99872 9.63031 3.34764 9.63031 3.34764C10.0903 2.80845 10.6765 2.68705 10.9551 2.71978C11.1943 2.74775 11.2616 2.67931 11.3002 2.63944C11.3058 2.63332 11.3118 2.62756 11.3181 2.62218C11.3568 2.59183 11.3973 2.3621 11.3973 2.3621C11.2997 1.84136 11.4228 1.36347 11.7228 0.943906C11.7228 0.943906 12.2477 0.19047 12.7268 0.144049C13.1553 0.10239 13.2047 0.364248 13.2499 0.60111C13.2547 0.629082 13.26 0.657053 13.266 0.683834C13.4647 1.59736 13.3671 1.81577 13.138 2.32937C13.0993 2.41686 13.0565 2.51267 13.0107 2.62218C12.9333 2.80548 12.9761 2.88046 13.0333 2.98223L13.0476 3.00842H13.0481ZM3.63257 16.9523C2.60002 16.9523 1.4663 15.5014 1.78172 13.428C1.96799 13.547 3.33799 14.6492 4.01346 15.2967C4.20926 15.799 4.07892 16.9523 3.63257 16.9523Z" fill="#7230DC"/>
<path d="M7.97665 8.0623C7.88155 8.06152 7.79057 8.0234 7.72333 7.95616C7.65609 7.88891 7.61797 7.79794 7.61719 7.70284V7.25173C7.61719 7.05534 7.78025 6.89227 7.97665 6.89227C8.17304 6.89227 8.33611 7.05534 8.33611 7.25173V7.70284C8.33611 7.79818 8.29823 7.88961 8.23082 7.95702C8.16341 8.02443 8.07198 8.0623 7.97665 8.0623Z" fill="#1C1C1C"/>
<path d="M11.0637 15.9221C11.3601 16.0334 11.6946 16.1423 12.0707 16.2536C11.7374 16.3917 11.3803 16.5125 10.9995 16.6155C11.0239 16.5506 11.0411 16.4845 11.053 16.4221L11.0637 15.9221ZM8.69928 13.2637C8.6356 12.8048 8.60584 12.2692 8.57014 11.633L8.56061 11.4658C8.46301 9.73338 6.31935 8.72225 5.17551 8.65738C4.08165 8.59489 0.332922 8.65143 0.00976562 8.65738C0.21092 13.0608 3.60019 17.3695 8.27257 17.0458C8.87271 17.0065 9.47017 16.9336 10.0621 16.8273C9.467 16.4804 8.53621 15.6329 8.69928 13.2637Z" fill="#9352FF"/>
</svg>
